<?xml version="1.0" encoding="UTF-8" standalone="no"?>
<!-- Created with Inkscape (http://www.inkscape.org/) -->

<svg
   version="1.1"
   id="svg1"
   width="1551"
   height="1552"
   viewBox="0 0 1551 1552"
   sodipodi:docname="favicon.svg"
   inkscape:version="1.4.2 (2aeb623e1d, 2025-05-12)"
   inkscape:export-filename="../420d0644/favicon16x16.png"
   inkscape:export-xdpi="1"
   inkscape:export-ydpi="1"
   xmlns:inkscape="http://www.inkscape.org/namespaces/inkscape"
   xmlns:sodipodi="http://sodipodi.sourceforge.net/DTD/sodipodi-0.dtd"
   xmlns="http://www.w3.org/2000/svg"
   xmlns:svg="http://www.w3.org/2000/svg">
  <defs
     id="defs1" />
  <sodipodi:namedview
     id="namedview1"
     pagecolor="#ffffff"
     bordercolor="#666666"
     borderopacity="1.0"
     inkscape:showpageshadow="2"
     inkscape:pageopacity="0.0"
     inkscape:pagecheckerboard="0"
     inkscape:deskcolor="#d1d1d1"
     inkscape:zoom="0.36722169"
     inkscape:cx="-51.739863"
     inkscape:cy="1042.9667"
     inkscape:window-width="1854"
     inkscape:window-height="1011"
     inkscape:window-x="66"
     inkscape:window-y="32"
     inkscape:window-maximized="1"
     inkscape:current-layer="g1" />
  <g
     inkscape:groupmode="layer"
     inkscape:label="Image"
     id="g1">
    <g
       id="g2">
      <path
         id="path4"
         style="display:inline;fill:#60b49e;fill-opacity:1"
         inkscape:label="verdo"
         sodipodi:type="inkscape:offset"
         inkscape:radius="10.487325"
         inkscape:original="M 1084.9512 516.62305 C 1062.7216 520.1777 1064.9295 581.58428 1087.8086 596.09375 C 1093.0997 599.44927 1093.0201 599.43672 1097.3281 597.63672 C 1121.6533 587.47302 1110.2121 512.58366 1084.9512 516.62305 z M 1089.3965 629.95703 C 1085.4406 630.36963 1081.1624 632.20996 1076.75 635.76172 C 1052.1706 655.5469 1046.3279 701.09754 1066.7422 713.77344 C 1078.9458 721.35102 1099.4649 705.49075 1107.5547 682.22852 C 1117.6444 653.21561 1106.5387 628.1691 1089.3965 629.95703 z M 1041.2461 746.21289 C 1039.9668 746.27488 1038.6438 746.4827 1037.2793 746.84766 C 997.99486 757.35464 975.52531 831.48609 1006.5 848.39453 C 1019.8327 855.67256 1046.5215 834.21129 1057.3848 807.47656 C 1069.6549 777.27972 1060.4359 745.28309 1041.2461 746.21289 z M 973.49023 865.45312 C 967.47888 864.92623 960.15825 866.29635 951.65625 870.08398 C 912.22645 887.6499 891.6161 943.54469 920.54492 954.45508 C 931.82891 958.71079 952.19025 950.99721 967.68945 936.5957 C 1001.0222 905.62369 999.53942 867.73634 973.49023 865.45312 z M 840.09766 945.81836 C 828.91845 946.3073 816.39772 950.19636 804.40625 958.18945 C 761.53201 986.7679 753.60619 1027.3708 789.40625 1035.0332 C 818.74648 1041.313 864.37365 1014.2157 874.49414 984.5 C 882.79471 960.12799 864.69191 944.74269 840.09766 945.81836 z M 671.87305 1011.1836 C 653.06704 1010.5967 632.64176 1014.0502 615.44727 1022.4414 C 561.86793 1048.5891 562.98477 1088.3565 617.53906 1096.959 C 665.83 1104.5738 729.84045 1074.2169 729.97852 1043.6348 C 730.06552 1024.3623 703.21638 1012.1617 671.87305 1011.1836 z M 481.92578 1095.8906 C 451.43533 1098.0725 415.5761 1120.1237 395.94531 1160.5 C 374.09187 1205.4478 386.73788 1249.8298 423.12109 1255.873 C 472.97909 1264.1544 532.97207 1207.9961 535.68945 1150.5 C 537.53757 1111.3963 512.41623 1093.7088 481.92578 1095.8906 z M 333.06836 1301.1445 C 312.46846 1301.6238 294.50875 1321.9044 284.97656 1359.5 C 270.67654 1415.9004 291.01755 1482.6488 326.33008 1495.1992 C 379.8247 1514.2117 417.13524 1397.8755 378.45312 1332.6777 C 376.55341 1329.4758 375 1326.6248 375 1326.3418 C 375 1326.0588 373.5375 1324.198 371.75 1322.2051 C 358.7383 1307.6984 345.4283 1300.857 333.06836 1301.1445 z "
         d="m 1087.5801,506.01758 c -1.4207,-0.0555 -2.8569,0.0216 -4.2852,0.25 -10.233,1.63632 -16.9132,9.94321 -20.2461,18.3789 -3.3329,8.4357 -4.4208,18.06822 -4.0644,27.98047 0.7128,19.8245 6.2455,41.56756 23.207,52.32422 2.6305,1.66819 4.3273,3.43091 9.0664,4.19922 4.7391,0.76831 7.9885,-0.95009 10.1133,-1.83789 10.5783,-4.41991 15.6827,-14.64311 18.0508,-24.81055 2.3681,-10.16744 2.3396,-21.41627 0.6797,-32.28125 -1.6599,-10.86497 -4.8832,-21.27869 -10.3145,-29.73828 -2.7156,-4.22979 -6.0356,-8.05307 -10.4863,-10.8418 -3.3381,-2.09154 -7.4586,-3.45639 -11.7207,-3.62304 z m 5.8008,113.49609 c -1.6503,-0.16549 -3.3437,-0.16857 -5.0723,0.0117 -6.3802,0.66545 -12.5214,3.54793 -18.1348,8.06641 -15.0358,12.1031 -23.4096,30.62856 -25.7031,48.50781 -2.2935,17.87925 1.3695,37.03982 16.7402,46.58398 5.5627,3.45401 12.2484,4.10718 18.0586,2.89649 5.8102,-1.2107 11.0423,-4.01164 15.836,-7.7168 9.5872,-7.41031 17.6499,-18.65853 22.3554,-32.18945 5.7445,-16.5183 5.782,-32.30218 1.0352,-44.84375 -4.1535,-10.97388 -13.5635,-20.15798 -25.1152,-21.31641 z m -52.6426,116.22461 c -2.062,0.0999 -4.1289,0.43312 -6.168,0.97852 -25.1073,6.71518 -41.64498,30.98271 -49.06444,55.46093 -3.70973,12.23912 -5.13008,24.82651 -3.12305,36.47461 2.00703,11.64811 8.05126,22.92047 19.09179,28.94727 6.5273,3.56313 13.8655,3.20049 20.1719,1.25 6.3064,-1.95049 12.1768,-5.47025 17.793,-9.98633 11.2322,-9.03215 21.4713,-22.20388 27.6621,-37.43945 6.9661,-17.14385 8.0318,-34.65707 4.1308,-49.00391 -1.9504,-7.17342 -5.1728,-13.67961 -10.2617,-18.72265 -5.0889,-5.04305 -12.4903,-8.33412 -20.2324,-7.95899 z m -72.70314,119.21289 c -6.4988,0.43234 -13.38096,2.31595 -20.64649,5.55274 -22.87147,10.1892 -39.29603,30.38634 -46.76172,50.63281 -3.73284,10.12323 -5.33011,20.43846 -3.22265,30.21289 2.10745,9.77442 9.0561,19.00193 19.43945,22.91797 9.54826,3.60109 19.52499,1.80456 29.4082,-1.93946 9.88322,-3.74401 19.83294,-9.92481 28.57617,-18.04882 18.28532,-16.99029 27.82248,-36.24268 28.50978,-53.59766 0.3437,-8.67749 -1.6493,-17.10922 -6.69923,-23.81445 -5.04991,-6.70524 -13.21554,-11.071 -22.23242,-11.86133 -2.08111,-0.18241 -4.20483,-0.1988 -6.37109,-0.0547 z M 839.63867,935.3418 c -13.26299,0.58007 -27.56031,5.13012 -41.04883,14.12109 -23.09623,15.39513 -37.79525,34.10342 -41.48047,52.98241 -1.8426,9.4395 -0.5611,19.3184 4.83399,27.2598 5.39508,7.9413 14.38656,13.2551 25.26758,15.584 18.7768,4.0188 39.35155,-2.3468 57.30273,-13.0078 17.95119,-10.6611 33.61098,-25.9106 39.9082,-44.40044 5.11751,-15.02596 1.96771,-30.06127 -7.26562,-39.57031 -9.23333,-9.50905 -22.92766,-13.60687 -37.51758,-12.96875 z m -167.43945,65.3594 c -20.32469,-0.6343 -42.23446,2.985 -61.35156,12.3144 -28.69873,14.0055 -45.97611,32.6355 -45.38868,53.5586 0.29372,10.4616 5.94214,20.2708 14.80274,27.0977 8.8606,6.8268 20.78336,11.303 35.64453,13.6465 26.96776,4.2524 56.56419,-1.9166 80.4043,-13.2227 11.92005,-5.6531 22.41593,-12.613 30.38281,-20.8769 7.96688,-8.264 13.72049,-18.2411 13.77148,-29.5372 0.0655,-14.5161 -10.26654,-25.79 -22.87304,-32.416 -12.60651,-6.6259 -28.45546,-10.0359 -45.39258,-10.5644 z m -184.50391,84.5293 c -2.16025,-0.024 -4.3348,0.043 -6.51758,0.1992 -34.92434,2.4992 -73.49384,26.9418 -94.66406,70.4844 -11.86807,24.41 -14.761,49.1821 -8.9043,69.7363 5.85671,20.5541 21.70137,36.899 43.79297,40.5684 29.37975,4.8799 59.54484,-8.8957 82.84766,-30.709 23.30282,-21.8134 40.39311,-52.293 41.91602,-84.5157 1.03336,-21.8646 -5.76725,-39.6663 -18.14649,-51.0117 -10.83183,-9.9272 -25.20245,-14.581 -40.32422,-14.7519 z m -154.87109,205.4297 c -13.66789,0.318 -26.30959,7.4822 -35.98242,18.998 -9.67284,11.5158 -16.98994,27.3804 -22.03125,47.2637 -7.68338,30.3038 -6.0849,62.7181 2.20703,89.9277 8.29193,27.2096 23.21527,50.2034 45.80078,58.2305 16.91613,6.0121 34.17218,0.8199 46.62891,-10.2442 12.45672,-11.064 21.49276,-27.3966 27.49609,-46.1152 12.00666,-37.4373 12.02208,-85.1689 -9.4707,-121.3945 -0.89295,-1.5051 -1.71095,-2.9406 -2.25,-3.9297 -0.003,-0.01 -0.003,-0.01 -0.006,-0.012 0.13264,0.456 0.27148,0.999 0.27148,2.957 0,-1.8342 -0.21519,-2.5634 -0.42383,-3.2441 -0.11963,-0.2248 -0.22715,-0.427 -0.28515,-0.5411 0.0369,0.046 0.13906,0.096 0.23047,0.1153 -0.29764,-0.7844 -0.63717,-1.094 -0.81446,-1.4278 -0.3258,-0.6133 -0.5443,-0.9344 -0.75,-1.2402 -0.4114,-0.6117 -0.76091,-1.0677 -1.15429,-1.5684 -0.78676,-1.0012 -1.70659,-2.0865 -2.73438,-3.2324 -14.291,-15.933 -30.33071,-24.9245 -46.73242,-24.5429 z" />
      <path
         id="path3"
         style="display:inline;fill:#5933c7;fill-opacity:1"
         inkscape:label="violet"
         sodipodi:type="inkscape:offset"
         inkscape:radius="9.2279243"
         inkscape:original="M 935.53125 25.554688 C 872.68489 23.872894 812.2668 66.089178 798.89258 134 C 785.00962 204.49404 852.29925 296.42156 963.36914 358.70312 C 1007.4903 383.44374 1042.5112 419.95652 1065.5605 465.24609 C 1070.5433 475.03688 1075.0029 482.69893 1075.4707 482.27344 C 1075.9386 481.84794 1076.0027 482.05504 1075.6133 482.73242 C 1074.5759 484.53701 1078.212 494.13329 1079.7148 493.55664 C 1082.4256 492.51639 1097.4016 495.03708 1102.5723 497.4043 C 1136.7674 513.05934 1146.333 579.76472 1118.6328 609.39453 L 1114.5 613.81445 L 1119.5938 618.66016 C 1152.6669 650.11962 1128.3405 729.07461 1082.791 738.11133 L 1077.084 739.24414 L 1079.166 743.32422 C 1101.9318 787.94901 1067.8859 861.26988 1019.6582 871.48242 C 1017.48 871.94363 1016.9757 872.48147 1017.4961 873.79102 C 1017.8694 874.73049 1018.4066 879.775 1018.6895 885 C 1021.6328 939.35958 958.81458 995.41964 912.41406 979.8418 L 905.32812 977.46289 L 903.80273 985.54883 C 893.10918 1042.1914 809.74344 1084.5977 764.94531 1056.1816 L 760.39062 1053.291 L 758.15625 1060.3965 C 740.72412 1115.8181 644.29544 1146.4892 582.1582 1116.377 C 538.84594 1095.3875 534.60345 1047.2117 573.32031 1016 C 579.89012 1010.7037 581.00236 1007 576.02344 1007 C 563.70513 1007 519.16384 1024.8925 496.57227 1038.916 C 455.7123 1064.2794 452.97722 1066.2916 455.2207 1069.3145 C 456.51564 1071.0594 456.84946 1071.0452 464.0332 1068.9629 C 521.67055 1052.2555 572.9362 1097.8857 565.92773 1159.6562 C 554.99374 1256.0249 441.49802 1322.0384 380.3457 1267.5977 C 360.30058 1249.7526 354.20594 1230.3861 356.07617 1190.4648 L 356.5 1181.4297 L 351.16992 1172.9609 C 345.90223 1164.5908 334.09035 1151 332.08398 1151 C 329.24879 1151 311.89367 1183.9364 304.68359 1203 C 288.114 1246.8103 274.67821 1295.5072 277.28516 1302.3008 C 278.08666 1304.3895 283.54784 1304.6149 284.70117 1302.6074 C 286.03579 1300.2844 301.23071 1287.9914 305.5 1285.7812 C 307.7 1284.6423 310.85 1282.6939 312.5 1281.4512 C 322.82825 1273.6725 347.61627 1273.9353 364.5 1282.002 C 425.8686 1311.3228 442.83578 1438.273 393.29102 1497.418 C 390.14083 1501.1786 390.13484 1501.1755 408 1504.3691 C 428.68687 1508.0671 433.608 1508.759 451 1510.4102 C 476.22502 1512.8052 484.00541 1513.2368 515 1513.9688 C 578.22147 1515.4617 619.32443 1514.6782 644.5 1511.5 C 683.20724 1506.6135 705.0219 1502.8774 732.5 1496.4297 C 767.53367 1488.2092 772.20919 1487.0001 776.76172 1484.9863 L 781.29297 1482.9824 L 780.39648 1472.2422 C 774.22362 1398.301 791.05729 1337.8629 832.79297 1284.1152 C 849.45396 1262.659 865.01695 1250.4437 893.5 1236.4707 C 907.78497 1229.4628 914.28328 1226.7477 937.7793 1217.9648 C 943.43246 1215.8516 953.78246 1211.5564 960.7793 1208.4199 C 967.77614 1205.2833 978.45 1200.5914 984.5 1197.9941 C 1057.0079 1166.8665 1135.4883 1098.0344 1187.4434 1020 C 1257.9188 914.14897 1290.6918 780.69067 1276.4609 657.5 C 1275.6349 650.35 1274.7121 641.575 1274.4102 638 C 1269.8977 584.56973 1248.2068 518.8786 1219.3789 471.33789 C 1180.3813 407.02603 1135.2295 363.10232 1061.1855 317.44531 C 990.34606 273.76425 941.05369 230.5924 909.63672 184.71484 C 884.454 147.94102 892.70483 106.51567 927.75391 93.753906 C 939.97629 89.303604 962.28431 90.622552 974 96.488281 C 976.475 97.727446 979.625 99.086235 981 99.507812 C 982.375 99.929389 985.3 101.48792 987.5 102.9707 C 1029.9933 131.61067 1083.1491 121.68389 1103.4023 81.328125 C 1107.9222 72.321925 1107.9109 71.71689 1103.25 73.689453 C 1078.8813 84.002588 1048.446 76.065921 1007.75 48.785156 C 985.0874 33.593156 960.1233 26.212781 935.53125 25.554688 z M 885.10547 909.10156 C 884.05778 908.90584 881.11356 910.75543 874.78711 914.37305 C 862.74264 921.26035 862.53763 921.52769 867.75 923.57422 C 869.8125 924.38402 873.3 925.90792 875.5 926.96094 C 880.98026 929.58404 882 929.47027 882 926.23047 C 882 924.70692 882.91766 920.14828 884.03906 916.10156 C 885.3036 911.53832 886.15315 909.29728 885.10547 909.10156 z M 788.72852 930.26758 C 787.34206 930.32405 784.45498 931.34182 778.44727 933.38867 C 759.0516 939.99686 694.10184 969.78801 686.51367 975.55664 C 682.27713 978.77732 686.22343 982.21458 695.87891 983.71289 C 710.51078 985.98342 729.14978 993.3147 737.08789 999.92383 C 740.43313 1002.7091 740.19171 1002.9738 743.29297 993.16016 C 749.39266 973.85835 764.83436 954.41393 783.62305 942.38086 C 789.08679 938.88165 790 937.52784 790 932.91797 C 790 931.11582 790.11497 930.21111 788.72852 930.26758 z "
         d="M 935.77734,16.330078 C 868.64482,14.533585 804.0901,59.847796 789.83789,132.2168 c -7.63458,38.76641 7.04085,81.74828 36.99023,122.66406 29.94939,40.91578 75.49644,80.17184 132.02735,111.87109 42.55983,23.8651 76.23563,58.97075 98.48043,102.67969 2.5548,5.01997 4.9663,9.4844 6.8965,12.80078 0.8054,1.38369 1.4847,2.45717 2.1739,3.4961 0.055,0.40153 0.063,0.89221 0.1347,1.26757 0.3608,1.89004 0.8968,3.61024 1.541,5.31055 0.6443,1.70031 1.3293,3.27848 2.4141,4.99219 0.5424,0.85685 1.0983,1.75955 2.498,2.98242 0.6999,0.61143 1.6391,1.35939 3.3008,1.95508 1.6617,0.59568 4.3441,0.84976 6.7266,-0.0645 -3.1395,1.20476 -1.3667,0.32318 0.055,0.41993 1.4213,0.0968 3.482,0.3522 5.6133,0.71093 4.2624,0.71748 9.3943,2.19616 10.041,2.49219 12.8832,5.89814 23.0519,23.47058 25.9492,43.67383 2.8973,20.20325 -1.6581,41.71881 -12.7871,53.62305 l -4.1328,4.41992 a 9.2288471,9.2288471 0 0 0 0.3808,12.98828 l 5.0938,4.8457 c 12.9246,12.29406 15.551,36.24641 8.623,58.73242 -6.928,22.48602 -22.8109,41.40134 -40.8613,44.98243 a 9.2288471,9.2288471 0 0 0 -0,0 l -5.707,1.13281 a 9.2288471,9.2288471 0 0 0 -6.4219,13.24609 l 2.0821,4.08008 c 9.6056,18.83112 7.4905,45.69979 -3.2832,68.90234 -10.7742,23.20348 -29.7523,41.76297 -49.918,46.03321 -1.6591,0.35129 -3.8336,0.26411 -6.916,3.55469 -1.5412,1.64529 -2.6716,4.46491 -2.7442,6.62304 -0.072,2.15814 0.435,3.56223 0.834,4.56641 -0.6727,-1.69298 -0.3074,-1.02548 -0.2363,-0.57031 0.071,0.45516 0.1702,1.2226 0.2676,2.13671 0.1946,1.82823 0.3903,4.27471 0.5234,6.73243 1.2708,23.46974 -12.14797,48.93784 -31.56249,66.26367 -19.41453,17.32583 -43.71762,25.65808 -62.56055,19.33203 l -7.08594,-2.37891 a 9.2288471,9.2288471 0 0 0 -12.00585,7.03711 l -1.5254,8.08594 c -4.6137,24.43831 -25.9854,47.59051 -51.75585,60.69921 -25.76943,13.1082 -54.62847,15.561 -73.0879,3.8535 l -0.002,-0 -4.55273,-2.8887 a 9.2288471,9.2288471 0 0 0 -13.74805,5.0234 l -2.23437,7.1055 c -7.40171,23.5291 -33.12538,43.8279 -65.22852,54.0391 -32.10391,10.2114 -69.66703,10.1072 -97.94336,-3.5957 -19.26919,-9.3381 -28.67559,-23.6851 -30.01172,-38.8594 -1.33613,-15.1744 5.51725,-31.9828 22.94141,-46.0293 3.90506,-3.1481 6.97925,-5.1913 8.72851,-11.0156 0.87464,-2.9122 0.13001,-8.6032 -3.15039,-11.4629 -3.2804,-2.8597 -6.27721,-2.93362 -8.66601,-2.93362 -5.31353,0 -10.48264,1.40479 -17.10938,3.41212 -6.62674,2.0073 -14.25743,4.7613 -22.20312,7.9531 -15.89139,6.3837 -32.8954,14.422 -45.00586,21.9395 -20.4445,12.6907 -31.24446,19.4295 -37.4375,23.9824 -3.09652,2.2764 -5.2286,3.6251 -7.28321,7.207 -1.0273,1.791 -1.82924,4.6889 -1.42968,7.3067 0.39955,2.6177 1.56205,4.3073 2.25586,5.2422 0.44037,0.5934 1.24384,1.8794 3.29687,3.2128 2.05303,1.3335 4.90303,1.8387 6.67969,1.7676 3.55332,-0.1421 5.19126,-0.9185 8.81445,-1.9687 25.9584,-7.5246 49.61835,-1.0665 66.48633,13.9472 16.86798,15.0137 26.86132,38.7138 23.66992,66.8418 -5.09039,44.8651 -34.4367,83.2347 -69.42969,103.5879 -34.99298,20.3533 -73.77076,22.6054 -100.8457,-1.498 -9.13119,-8.129 -14.39449,-15.6987 -17.6875,-26.1641 -3.29301,-10.4654 -4.40992,-24.2216 -3.5,-43.6445 l 0.42383,-9.0352 a 9.2288471,9.2288471 0 0 0 -1.4082,-5.3476 l -5.33008,-8.4688 c -3.09073,-4.911 -7.48959,-10.5133 -11.61133,-15.2558 -2.06087,-2.3713 -4.01523,-4.4804 -5.82617,-6.209 -0.90547,-0.8643 -1.74714,-1.627 -2.79688,-2.4024 -1.04974,-0.7753 -1.20228,-2.4062 -6.66211,-2.4062 -4.64389,0 -5.75615,1.781 -6.72851,2.6211 -0.97236,0.84 -1.55201,1.5284 -2.13672,2.25 -1.16942,1.4431 -2.22156,3.0066 -3.40039,4.873 -2.35767,3.7328 -5.08489,8.5825 -7.95703,14.0332 -5.74429,10.9015 -11.95896,24.009 -15.8086,34.1875 -8.39305,22.1914 -15.95793,45.5084 -21.15429,64.3418 -2.59818,9.4168 -4.60523,17.6886 -5.83594,24.3184 -0.61535,3.3149 -1.04257,6.2024 -1.23242,8.8144 -0.18985,2.6121 -0.6215,4.5883 0.83984,8.3965 1.43624,3.7428 4.19907,5.4534 6.22656,6.3477 2.0275,0.8943 3.79974,1.1821 5.58399,1.2558 1.78425,0.074 3.56221,-0.077 5.60156,-0.7558 2.03935,-0.6787 4.72859,-1.9559 6.62109,-5.25 -0.84144,1.4646 -0.65186,0.9107 -0.31054,0.5625 0.34132,-0.3483 0.95332,-0.9312 1.70117,-1.6055 1.49569,-1.3485 3.5612,-3.0968 5.71094,-4.8359 4.29948,-3.4783 10.03651,-7.4009 9.9375,-7.3496 2.8222,-1.461 5.8528,-3.3048 8.30859,-5.1543 2.29038,-1.725 9.55777,-3.8989 17.89258,-3.8106 8.33481,0.088 17.68613,2.0236 24.57812,5.3164 26.30839,12.5697 45.36925,48.6347 50.82032,89.4199 5.45106,40.7853 -2.77264,85.0606 -25.125,111.7442 -0.78623,0.9386 -2.13023,1.3506 -3.34571,5.6269 -0.60774,2.1382 -0.3112,6.013 1.30274,8.4317 1.61394,2.4186 3.37736,3.2978 4.64844,3.8984 5.0843,2.4026 8.62244,2.4072 17.55468,4.0039 20.74015,3.7075 26.27959,4.4859 43.75,6.1446 25.29892,2.402 33.61056,2.8625 64.6543,3.5957 63.39201,1.4969 104.64815,0.7718 130.875,-2.5391 38.85968,-4.9057 61.18742,-8.7255 88.95117,-15.2402 35.05182,-8.2248 40.44624,-9.5817 45.88672,-11.9883 l 4.53125,-2.0039 a 9.2288471,9.2288471 0 0 0 5.46289,-9.2071 l -0.89648,-10.7402 c -6.02247,-72.1397 10.07262,-129.6489 50.49023,-181.6992 15.99425,-20.5976 29.71529,-31.3977 57.48242,-45.0195 14.13762,-6.9357 20.01084,-9.3866 43.44532,-18.1465 6.03441,-2.2557 16.31797,-6.5299 23.54492,-9.7696 6.93466,-3.1087 17.62237,-7.805 23.58593,-10.3652 74.82128,-32.1207 154.04088,-101.8423 206.98438,-181.3613 71.727,-107.73089 105.0054,-243.12207 90.502,-368.67189 -0.8172,-7.07331 -1.7458,-15.95324 -2.0215,-19.21875 -4.6678,-55.26925 -26.618,-121.6614 -56.336,-170.66993 C 1187.6004,401.13346 1140.8973,355.75497 1066.0293,309.58984 995.87416,266.33074 947.64942,223.89166 917.25,179.5 c -11.41321,-16.66647 -14.82016,-33.76845 -12.0918,-47.4668 2.72837,-13.69834 11.02495,-24.24515 25.75196,-29.60742 4.13981,-1.50735 11.96565,-2.41299 19.61132,-1.96094 7.64568,0.45206 15.33882,2.26828 19.34766,4.27539 2.863,1.43343 5.51416,2.69714 8.42578,3.58985 -1.21236,-0.37171 2.50524,1.25391 4.04688,2.29297 46.2703,31.18564 106.4241,20.44251 129.3086,-25.156253 1.1492,-2.289948 2.0383,-4.084162 2.7539,-5.730469 0.7155,-1.646306 1.6696,-2.507253 1.5898,-6.527344 -0.04,-2.010045 -1.31,-6.040544 -4.4003,-8.064453 -3.0904,-2.023908 -5.5858,-1.692101 -6.9649,-1.503906 -2.7583,0.376389 -3.6522,0.991127 -4.9746,1.550781 -20.2641,8.576008 -47.1496,2.486494 -86.7656,-24.070312 C 988.77078,24.953532 962.04675,17.033058 935.77734,16.330078 Z M 1067.6133,478.13281 c -0.7089,1.23305 -0.9827,2.17642 -1.1621,3.02735 0.072,-1.34141 0.6097,-1.77467 0.7539,-2.15039 0.2309,-0.60203 0.3498,-0.77533 0.4082,-0.87696 z m 14.0664,10.9668 c 0.3622,0.50527 -11.6821,5.96828 -3.4902,1.87891 1.2702,-0.3974 2.5358,-1.01087 3.4902,-1.87891 z m -3.6602,1.94141 c -0.2509,0.0713 -0.5821,0.0613 -0.8925,0.10742 0.3171,-0.0646 0.5706,-0.0126 0.8925,-0.10742 z M 882.79102,899.95703 c -0.23895,-0.48072 -12.36172,5.90412 -5.23047,2.2207 -1.96839,1.05689 -4.2431,2.40694 -7.35352,4.18555 -3.02366,1.729 -5.33905,3.05443 -7.24414,4.25195 -1.90509,1.19753 -3.3557,1.76996 -5.49609,4.56836 -1.0702,1.39921 -2.5505,4.17909 -2.10743,7.58594 0.44308,3.40685 2.5349,5.64 3.83204,6.67774 2.59427,2.07547 3.79968,2.17266 5.18554,2.71679 1.6906,0.66378 5.23701,2.21087 7.13867,3.1211 2.98805,1.43021 4.17721,3.36915 10.31836,2.67968 3.07058,-0.34473 7.27785,-3.61048 8.41016,-6.26757 1.13231,-2.6571 0.98438,-4.17276 0.98438,-5.4668 0,1.09094 0.0952,-0.70302 0.41601,-2.29688 0.32086,-1.59385 0.79156,-3.57893 1.28711,-5.36718 0.59407,-2.14376 1.12119,-3.69422 1.54297,-5.72852 0.21089,-1.01715 0.59664,-2.0807 0.20312,-4.61719 -0.19675,-1.26824 -0.71129,-3.10918 -2.19531,-4.8789 -1.48402,-1.76973 -3.87761,-2.97354 -5.68164,-3.31055 -1.80391,-0.33699 -3.05934,-0.27623 -4.00976,-0.0742 z m -94.4375,21.08984 c -5.37079,0.21876 -6.90475,1.57068 -12.88282,3.60743 -10.72847,3.65523 -31.52044,12.68939 -51.26562,21.74609 -9.87259,4.52835 -19.37216,9.02703 -26.96094,12.79883 -7.58878,3.7718 -12.41478,6.04714 -16.31445,9.01172 -2.23814,1.70146 -4.87429,4.52747 -5.28516,8.90625 -0.41087,4.37878 2.07971,8.20565 4.28125,10.12304 4.40307,3.8348 8.84295,4.70789 14.53906,5.5918 12.83097,1.99107 31.66051,9.97217 36.71875,14.18357 0.73914,0.6154 1.19836,1.3246 3.52539,2.5586 1.16352,0.617 3.20341,1.4834 5.94141,1.2012 2.738,-0.2822 5.21987,-1.949 6.43164,-3.2695 2.42354,-2.6411 2.52086,-4.04 3.09961,-5.67 0.57875,-1.6299 1.14162,-3.46252 1.91016,-5.89449 5.28788,-16.73293 19.58738,-34.95251 36.50781,-45.78907 2.99038,-1.91517 5.64297,-3.56287 7.91211,-6.92968 2.26914,-3.36682 2.7168,-7.39041 2.7168,-10.30469 0,-0.70484 0.54006,-1.46966 -0.56836,-4.87695 -0.55422,-1.70365 -2.24225,-4.32144 -4.57618,-5.65235 -2.33392,-1.33091 -4.38793,-1.39648 -5.73046,-1.3418 z" />
      <path
         style="display:inline;fill:#000000"
         d="m 461.00609,1549.0116 c -56.61107,-3.0688 -95.78014,-9.5683 -126.50609,-20.9917 -2.75,-1.0224 -8.46546,-2.5366 -12.70101,-3.3649 -14.28327,-2.7933 -27.6424,-10.8518 -37.04767,-22.3478 -18.01265,-22.0205 -25.73506,-51.5195 -29.05744,-79.0186 -2.54134,-30.8428 -2.28323,-61.1383 9.92141,-90.1971 1.87057,-4.0747 3.28486,-7.4986 3.14287,-7.6087 -0.14199,-0.1101 -2.24307,-0.8263 -4.66907,-1.5915 -9.9757,-3.1466 -11.30895,-12.641 -6.09136,-43.3779 11.68018,-68.8083 48.35823,-146.7375 71.06843,-150.998 6.83376,-1.282 21.40895,7.3384 30.1603,17.8382 l 3.72645,4.471 4.49585,-1.7066 c 3.94057,-1.4958 5.08843,-2.6926 9.29389,-9.6898 12.89383,-21.4533 33.5422,-42.0135 54.31586,-54.0838 l 7.93703,-4.6117 -3.61506,-5.032 c -10.08177,-14.033 -4.74312,-22.6968 26.64236,-43.2364 40.15632,-26.2795 53.17924,-32.7271 87.76928,-43.4545 35.67626,-11.06426 48.33472,-9.57611 50.82138,5.97464 0.79037,4.94266 -0.59756,5.05026 17.8865,-1.386 11.44881,-3.98654 24.7081,-6.94089 40.84681,-9.10123 3.93933,-0.52732 4.74322,-0.96226 4.29355,-2.323 -4.48251,-13.56445 -3.71043,-15.00355 13.35964,-24.90127 35.36744,-20.50706 68.65853,-36.0606 93.78478,-43.81607 28.30936,-8.73798 37.25804,-6.71688 38.84444,8.77318 0.83142,8.11819 0.80995,8.09323 5.10106,5.93272 C 818.4143,927.30791 837.61998,923 842.20535,923 c 2.10386,0 2.27894,-0.3787 1.97015,-4.26127 -0.44467,-5.59101 1.84821,-8.47358 10.58321,-13.30506 C 858.46642,903.38287 867.8,897.53259 875.5,892.43305 891.00179,882.16656 904.00878,875 907.14022,875 c 1.12487,0 4.81599,-2.525 8.2025,-5.6111 6.07888,-5.53967 20.1363,-15.53413 26.35885,-18.74047 1.95668,-1.00824 5.70971,-5.24622 9.65189,-10.89907 3.54767,-5.08715 9.83141,-13.07227 13.96386,-17.74471 6.9131,-7.81644 7.56614,-8.93525 8.1717,-14 3.1002,-25.92922 19.5603,-56.06482 37.36028,-68.40022 3.3104,-2.29412 5.2043,-5.3158 12.1659,-19.41076 4.5349,-9.18152 9.1891,-18.03211 10.3428,-19.66797 1.8159,-2.57477 2.1134,-4.52255 2.2149,-14.5 0.2218,-21.80126 8.2336,-42.89604 21.7664,-57.3098 7.926,-8.44203 8.8812,-23.74318 2.2419,-35.91504 -10.1264,-18.56485 -14.0643,-50.65411 -8.3487,-68.03124 5.6387,-17.14328 -6.7417,-48.70558 -32.6626,-83.26962 -14.9289,-19.9069 -43.24811,-46.86124 -54.13861,-51.52945 -22.21131,-9.52088 -75.3524,-47.27768 -107.32743,-76.25624 C 783.84592,247.32155 757.40884,176.83584 780.13518,108.50286 811.98697,12.731745 928.05031,-28.138231 1016,25.446583 c 57.4993,35.032422 93.1284,34.59713 95.9097,-1.171758 1.9042,-24.48879957 20.2984,-14.2861793 25.6464,14.225175 12.535,66.82605 -62.4332,130.4884 -123.6825,105.03017 -3.5055,-1.45705 -6.8236,-2.7614 -7.3736,-2.89855 -0.55,-0.13715 -11.125,-5.28797 -23.5,-11.44627 -27.42117,-13.64587 -35.35938,-15.57062 -44.69877,-10.838 -20.13306,10.2022 -17.79213,38.67824 5.57905,67.86574 21.68942,27.08721 88.95152,80.27367 140.02682,110.72409 110.6173,65.94857 182.14,159.53264 206.0163,269.56282 35.8889,165.38795 17.2449,303.26932 -58.955,436 -69.829,121.6335 -163.7536,199.5678 -299.4684,248.4851 -45.41745,16.3704 -77.81745,42.8492 -101.42677,82.8907 -20.51541,34.7942 -29.44804,123.2193 -17.44638,172.7036 1.63889,6.7573 -91.49088,27.9155 -151.30733,34.3755 -67.42346,7.2816 -151.92086,10.6801 -200.31343,8.0567 z M 594.5,1515.4523 c 36.60854,-0.6608 58.65142,-2.6463 88,-7.9266 4.4,-0.7916 12.275,-2.1612 17.5,-3.0435 14.27202,-2.4101 60.14964,-13.1239 71.28467,-16.6472 11.00998,-3.4838 11.93993,-4.4324 11.31125,-11.5382 -0.23342,-2.6383 -0.96591,-10.6468 -1.62777,-17.7968 -6.10174,-65.9165 17.51679,-133.9277 65.05057,-187.3175 15.39391,-17.2904 42.60455,-33.0893 82.98128,-48.1803 15.84624,-5.9226 50.9631,-20.9672 74.4956,-31.915 85.8776,-39.952 178.774,-138.7962 225.5086,-239.9469 95.5337,-206.76992 35.442,-387.16537 18.0512,-430.90756 -21.3835,-52.02053 -54.4849,-99.21275 -96.4297,-137.4784 -29.6536,-27.05266 -37.5973,-33.36208 -65.0699,-51.68313 -6.0193,-4.01419 -12.0943,-8.10548 -13.5,-9.09175 -1.4057,-0.98628 -14.4808,-9.6421 -29.0558,-19.23517 -74.03061,-48.72593 -131.73336,-104.81665 -141.83403,-137.87164 -17.30886,-56.64416 31.83773,-91.10015 85.9759,-60.2765 39.43823,22.45423 74.10223,22.90434 100.38353,1.30349 9.84,-8.087554 20.8287,-25.137319 22.9682,-35.636737 l 0.6596,-3.237097 -7.3266,3.469659 c -23.4453,11.102959 -55.9172,3.094753 -94.0125,-23.185344 -81.78059,-56.416388 -196.48962,-9.095314 -213.44847,88.054189 -11.43143,65.48545 49.21342,154.65105 143.72089,211.31159 74.69158,44.78022 114.37308,86.69291 133.95068,141.48237 l 2.3791,6.65827 8.5419,0.40927 c 46.6354,2.23447 66.2032,85.61677 27.3991,116.75291 -2.1743,1.74464 -2.5039,2.41788 -1.3788,2.81648 3.5076,1.24268 12.2344,10.89571 15.0211,16.61534 C 1146.167,672.8041 1115.3572,737 1075.3237,737 h -3.256 l 3.0976,4.58976 c 26.2715,38.92702 -7.9369,118.1984 -55.0027,127.45802 -6.0756,1.19532 -6.2832,1.33551 -5.6592,3.82185 14.2651,56.83669 -58.57847,127.1153 -106.5034,102.75321 l -4.5,-2.28753 -1.64823,9.25628 c -10.6115,59.59321 -95.90807,101.54641 -139.66745,68.69561 -3.91456,-2.9388 -3.53096,-3.2407 -5.09744,4.0125 -11.91068,55.1498 -110.29227,89.2248 -172.58688,59.7764 -42.44747,-20.0661 -47.48504,-61.599 -11.55849,-95.2954 8.2215,-7.7112 8.79428,-8.5051 8.3283,-11.5429 -0.8524,-5.5571 -3.68768,-5.2691 -29.1604,2.9618 -29.96833,9.6836 -45.47035,17.5339 -81.10941,41.0746 -19.10582,12.6199 -19.43572,12.9003 -18.63583,15.838 1.56382,5.7432 2.77244,6.2348 9.90943,4.0304 60.42668,-18.6639 111.03725,28.9532 100.28664,94.355 -14.67539,89.2782 -119.52824,149.0314 -178.20427,101.5545 -18.884,-15.2798 -26.57127,-34.6744 -26.77497,-67.5521 l -0.12392,-20 -6.20936,-9 c -7.45362,-10.8035 -18.51553,-22.9024 -20.39397,-22.306 -7.21703,2.2918 -31.19365,55.8489 -45.12914,100.806 -3.69206,11.9109 -12.49334,53.5646 -11.52304,54.5349 2.07218,2.0722 8.23838,1.6583 10.21649,-0.6858 31.4407,-37.257 94.27359,-39.2741 123.56613,33.8911 21.19328,52.9353 12.16624,131.5287 -18.39835,160.1841 -4.16901,3.9086 -3.33763,4.6601 7.66416,6.9273 25.81407,5.3199 49.36935,8.2606 81.25,10.1435 31.94416,1.8867 35.92906,1.9024 116,0.4572 z M 351.85804,1496.458 c 59.86885,-27.3339 60.3225,-164.0708 0.64196,-193.4989 -63.90286,-31.5102 -103.25873,109.9814 -49.4133,177.6499 13.66009,17.1668 32.48558,23.2845 48.77134,15.849 z m 99.03546,-239.4842 c 58.28575,-13.9725 104.01128,-89.9781 82.18788,-136.6136 -17.96296,-38.386 -76.35335,-35.8883 -115.81046,4.9538 -60.03731,62.1446 -37.90593,148.8071 33.62258,131.6598 z m 206.34227,-158.5835 c 57.15522,-9.4667 93.22032,-50.128 65.52128,-73.8715 -28.554,-24.4763 -91.87078,-20.6732 -129.25705,7.7639 -47.31841,35.9917 -6.98905,77.8219 63.73577,66.1076 z m 158.72068,-62.4315 c 33.76466,-8.094 63.11357,-37.57917 63.02159,-63.31414 -4.52522,-39.3718 -62.74657,-34.0189 -95.37772,-1.25771 -37.18894,37.33715 -17.54751,76.53475 32.35613,64.57185 z M 743.93578,999.5 c 3.90421,-18.7062 21.36885,-42.3382 40.36038,-54.61302 3.3735,-2.1804 6.48003,-4.50945 6.90342,-5.17567 1.02079,-1.60627 1.02392,-12.71131 0.004,-12.71131 -8.39118,0 -96.30729,39.01057 -106.57427,47.28967 l -2.87112,2.31521 2.04742,4.01326 c 2.0348,3.98854 2.09848,4.02108 10.33813,5.28242 16.17492,2.4761 34.32039,9.8119 43.35668,17.52814 4.67728,3.994 4.79755,3.9206 6.43578,-3.9287 z m 200.30577,-44.78705 c 36.37643,-13.26618 62.94485,-61.4248 46.08323,-83.53156 -10.70176,-14.03073 -39.18898,-9.44177 -59.3966,9.56811 -41.29269,38.84521 -31.99706,90.48779 13.31337,73.96345 z M 884.00701,929.75 c 0.009,-3.99777 3.30086,-17.91282 5.44171,-23 2.01257,-4.78237 2.50019,-4.9175 -10.82547,3 -6.24838,3.7125 -12.76968,7.51652 -14.49177,8.45338 -4.61704,2.51177 -2.74733,6.10223 4.33828,8.33093 2.85672,0.89854 6.95718,2.67849 9.11213,3.95544 5.41325,3.20769 6.41686,3.09214 6.42512,-0.73975 z m 141.68189,-81.38268 c 27.2417,-12.8874 46.6618,-57.66763 37.4554,-86.36732 -10.2702,-32.01625 -48.3109,-19.23961 -65.73683,22.07893 -17.82201,42.25763 -1.85797,78.5466 28.28143,64.28839 z m 59.0854,-133.4124 c 20.4543,-10.22112 34.3779,-45.06323 27.2415,-68.16825 -6.5282,-21.13599 -24.9553,-25.05383 -40.9886,-8.71472 -31.6439,32.2474 -20.5944,94.04361 13.7471,76.88297 z m 12.9106,-115.01854 c 22.8527,-8.63433 20.5656,-66.99688 -3.2434,-82.76731 -12.102,-8.01604 -21.4624,-0.40089 -25.8604,21.03877 -6.3123,30.77167 11.4314,68.40564 29.1038,61.72854 z"
         id="path2"
         inkscape:label="noir"
         sodipodi:nodetypes="ssssssssssscssscssssssssssssssssssssssssssssssssssssssssssssssssssssssssssssssssssscssssscssssscsscscssssssssssssscscsssssssssssssssssssssssscsssscsssccsssscssssscssssssssssss" />
    </g>
  </g>
</svg>
